<svg id="Layer_1" data-name="Layer 1" xmlns="http://www.w3.org/2000/svg" viewBox="0 0 173 23"><defs><style>.cls-1{fill:#421540;}</style></defs><title>mh-logo</title><path class="cls-1" d="M73,6.74H64.09a1.45,1.45,0,0,0-1.37,1.32h0V6.74h0V1H59.09V22h3.62V9.17h0v1.58a1.61,1.61,0,0,1,1.41-1.58h6.55A1.79,1.79,0,0,1,72.28,11V22H75.9c0-5,0-12,0-12.06A3.06,3.06,0,0,0,73,6.74"/><path class="cls-1" d="M27,6.09H18.59c-1,.11-1.77.71-1.77,1.44,0-.73-.77-1.33-1.77-1.44H6a1.37,1.37,0,0,0-1.34,1.3h0V6.06H1v3A1.62,1.62,0,0,0,1,9.3C1,9.36,1,22,1,22H4.63V10.38a1.78,1.78,0,0,1,1.6-1.86h5.86a1.75,1.75,0,0,1,1.5,1.59V22h3.67V10.12a1.75,1.75,0,0,1,1.51-1.59h5.85a1.78,1.78,0,0,1,1.6,1.86V22h3.62s0-12.62,0-12.68A3.06,3.06,0,0,0,27,6.09"/><path class="cls-1" d="M93.06,6.72H79.8V9.15H90.73A1.77,1.77,0,0,1,92.34,11v1.75H82.23A3.06,3.06,0,0,0,79.32,16v2.81A3.06,3.06,0,0,0,82.23,22H91.3a1.42,1.42,0,0,0,1.17-1.3h0V22H96c0-5,0-12,0-12.06a3.06,3.06,0,0,0-2.91-3.21M90.81,19.55h0M92.34,18a1.62,1.62,0,0,1-1.44,1.58H84.56A1.78,1.78,0,0,1,83,17.69V17a1.78,1.78,0,0,1,1.61-1.86h7.78V18"/><rect class="cls-1" x="33.26" y="1.08" width="3.62" height="2.53"/><rect class="cls-1" x="33.26" y="6.72" width="3.62" height="15.29"/><rect class="cls-1" x="154.31" y="1.08" width="3.62" height="2.53"/><rect class="cls-1" x="161.34" y="1.07" width="3.62" height="20.93"/><path class="cls-1" d="M40.3,9.92v8.83A3.07,3.07,0,0,0,43.2,22H55.67V19.53H45.54a1.78,1.78,0,0,1-1.61-1.86V11a1.78,1.78,0,0,1,1.61-1.86H55.67V6.71H43.2a3.06,3.06,0,0,0-2.9,3.21"/><path class="cls-1" d="M109.81,15.17h6.06l0-5.21a3.07,3.07,0,0,0-2.91-3.22H102.27A3.07,3.07,0,0,0,99.37,10v2.8c0,.05,0,.1,0,.15,0,4.28,0,5.79,0,5.83A3.06,3.06,0,0,0,102.28,22h13.06V19.52H104.61A1.78,1.78,0,0,1,103,17.66V15.18h6.81ZM103,11a1.78,1.78,0,0,1,1.61-1.86h6A1.78,1.78,0,0,1,112.22,11l0,1.65H103Z"/><rect class="cls-1" x="168.38" y="1.07" width="3.62" height="20.93"/><rect class="cls-1" x="154.31" y="6.72" width="3.62" height="15.29"/><rect class="cls-1" x="119.27" y="1" width="3.62" height="20.97"/><path class="cls-1" d="M148,6.74h-8.91a1.44,1.44,0,0,0-1.37,1.32h0V6.74h0V1h-3.63V22h3.63V10.75a1.61,1.61,0,0,1,1.41-1.58h6.55a1.78,1.78,0,0,1,1.6,1.86V22h3.63c0-5,0-12,0-12.06A3.06,3.06,0,0,0,148,6.74"/></svg>